<?xml version="1.0" encoding="UTF-8"?><svg id="CAMERA" xmlns="http://www.w3.org/2000/svg" width="41" height="40" viewBox="0 0 41 40"><rect x="5.75" y="11.47" width="19.49" height="22.5" rx="2.96" ry="2.96" transform="translate(-7.22 38.22) rotate(-90)" fill="none" stroke="#fff" stroke-miterlimit="10" stroke-width="2.02"/><path d="M30.47,24.55v-3.82s.02-.1.05-.13l5.9-3.9c.12-.12.32-.03.32.13v11.77c0,.17-.2.25-.32.13l-5.9-4.04s-.05-.08-.05-.13Z" fill="#fff" stroke="#fff" stroke-miterlimit="10" stroke-width="2.02"/><path d="M7.75,9.63l1.56-1.56c.28-.28.66-.44,1.06-.44h8.63c.29,0,.58.09.83.25l2.66,1.75" fill="none" stroke="#fff" stroke-miterlimit="10" stroke-width="2.02"/><rect x="10.25" y="15.96" width="1" height="4" rx=".5" ry=".5" transform="translate(-7.21 28.71) rotate(-90)" fill="none" stroke="#fff" stroke-miterlimit="10" stroke-width="2.02"/></svg>