<?xml version="1.0" encoding="UTF-8"?><svg id="User" xmlns="http://www.w3.org/2000/svg" width="41" height="40" xmlns:xlink="http://www.w3.org/1999/xlink" viewBox="0 0 41 40"><defs><linearGradient id="Dégradé_sans_nom_16" x1="20.5" y1="1.7" x2="20.5" y2="38.3" gradientUnits="userSpaceOnUse"><stop offset="0" stop-color="#fff"/><stop offset="1" stop-color="#fff"/></linearGradient></defs><circle id="Cercle" cx="20.5" cy="20" r="17.3" fill="none" stroke="url(#Dégradé_sans_nom_16)" stroke-miterlimit="10" stroke-width="2"/><path id="Admin" d="M29.6,11.33l-8.67-3.31c-.28-.11-.59-.11-.87,0l-8.67,3.31c-.47.18-.79.64-.79,1.14v6.15c0,4.72,2.31,9.14,6.18,11.84l3.18,2.21c.32.22.75.22,1.07,0l3.18-2.21c3.87-2.7,6.18-7.12,6.18-11.84v-6.15c0-.51-.31-.96-.79-1.14ZM21,30.87c.96-6.29.88-12.63.92-18.98.64,6.3.71,12.82-.92,18.98Z" fill="#fff" stroke-width="0"/></svg>