<?xml version="1.0" encoding="UTF-8"?><svg id="User" xmlns="http://www.w3.org/2000/svg" width="41" height="40" xmlns:xlink="http://www.w3.org/1999/xlink" viewBox="0 0 41 40"><defs><linearGradient id="Dégradé_sans_nom_16" x1="20.5" y1="1.7" x2="20.5" y2="38.3" gradientUnits="userSpaceOnUse"><stop offset="0" stop-color="#fff"/><stop offset="1" stop-color="#fff"/></linearGradient></defs><circle id="Cercle" cx="20.5" cy="20" r="17.3" fill="none" stroke="url(#Dégradé_sans_nom_16)" stroke-miterlimit="10" stroke-width="2"/><path id="Maintenance" d="M28.76,12.12l-2.12,3.05c-.43.62-1.28.77-1.89.34l-2.21-1.53c-.62-.43-.77-1.28-.34-1.89l2.12-3.05c-2.13-.28-4.34.59-5.65,2.48-1.31,1.89-1.37,4.27-.36,6.17l-6.28,9.06c-.85,1.23-.55,2.92.68,3.78h0c1.23.85,2.92.55,3.78-.68l6.28-9.06c2.13.28,4.34-.61,5.65-2.5,1.31-1.89,1.35-4.26.34-6.16Z" fill="#fff" stroke-width="0"/></svg>